<?xml version="1.0" encoding="utf-8"?>
<!-- Generator: Adobe Illustrator 17.1.0, SVG Export Plug-In . SVG Version: 6.00 Build 0)  -->
<!DOCTYPE svg PUBLIC "-//W3C//DTD SVG 1.1//EN" "http://www.w3.org/Graphics/SVG/1.1/DTD/svg11.dtd">
<svg version="1.1" id="Layer_1" xmlns="http://www.w3.org/2000/svg" xmlns:xlink="http://www.w3.org/1999/xlink" x="0px" y="0px"
	 viewBox="0 0 188.79 56.58" enable-background="new 0 0 188.79 56.58" xml:space="preserve">
<path fill-rule="evenodd" clip-rule="evenodd" fill="#00BEE1" d="M9.33,39.76c0,3.06,0,8.41,4.28,8.41c3.29,0,4.43-3.06,4.43-5.28
	C18.05,33.18,0,30.97,0,14.83C0,6.65,4.43,0,12.85,0c8.95,0,12.39,6.8,12.62,16.59h-8.87c0-3.06,0-8.18-3.98-8.18
	c-2.37,0-3.75,1.99-3.75,4.97c0,9.25,18.04,12.39,18.04,28.21c0,8.33-4.74,14.99-13.69,14.99c-10.63,0-12.77-9.33-12.77-16.82H9.33z
	"/>
<g>
	<rect x="29.51" y="1.07" fill-rule="evenodd" clip-rule="evenodd" fill="#00BEE1" width="8.87" height="8.87"/>
	<rect x="29.51" y="17.13" fill-rule="evenodd" clip-rule="evenodd" fill="#00BEE1" width="8.87" height="38.39"/>
</g>
<path fill-rule="evenodd" clip-rule="evenodd" fill="#00BEE1" d="M56.43,31.12c-0.15-5.96-0.69-8.18-2.6-8.18
	c-1.99,0-2.45,2.29-2.45,14.38c0,9.63,0.76,11.93,2.83,11.93c2.68,0,2.83-4.43,3.36-8.41l6.8,0.23c-0.15,7.11-1.6,14.91-10.63,15.06
	c-6.96,0-12.31-5.28-12.31-19.8c0-14.53,5.35-19.8,12.31-19.8c8.56,0,10.02,6.73,10.63,14.37L56.43,31.12z"/>
<polygon fill-rule="evenodd" clip-rule="evenodd" fill="#00BEE1" points="67.36,1.07 76.23,1.07 76.23,30.51 76.39,30.51 
	83.19,17.13 90.53,17.13 84.42,28.75 91.6,55.51 82.73,55.51 78.38,38.23 78.3,38.23 76.23,42.44 76.23,55.51 67.36,55.51 "/>
<polygon fill-rule="evenodd" clip-rule="evenodd" fill="#0067B1" points="95.2,1.07 105.14,1.07 105.14,23.86 105.29,23.86 
	113.55,1.07 122.42,1.07 115,19.35 123.95,55.51 114.39,55.51 108.88,31.12 108.73,31.12 105.14,39.68 105.14,55.51 95.2,55.51 "/>
<g>
	<rect x="126.47" y="1.07" fill-rule="evenodd" clip-rule="evenodd" fill="#0067B1" width="8.87" height="8.87"/>
	<rect x="126.47" y="17.13" fill-rule="evenodd" clip-rule="evenodd" fill="#0067B1" width="8.87" height="38.39"/>
</g>
<g>
	<path fill-rule="evenodd" clip-rule="evenodd" fill="#0067B1" d="M154.38,1.07v18.2h-0.15c-1.07-1.46-2.98-2.75-5.58-2.75
		c-6.5,0-9.48,7.04-9.48,19.73c0,12.54,2.29,19.88,8.72,19.88c3.52,0,4.97-1.68,6.73-3.67h0.15v3.06h8.49V1.07H154.38z
		 M154.38,48.48c-0.46,0.69-1.38,1.22-2.68,1.22c-2.6,0-3.06-1.76-3.06-13.54c0-12.08,0.69-13.69,3.29-13.69
		c1.15,0,2.07,0.53,2.45,1.22V48.48z"/>
</g>
<path fill-rule="evenodd" clip-rule="evenodd" fill="#0067B1" d="M180.99,27.83c-0.3-2.37-0.84-4.89-3.9-4.89
	c-1.68,0-2.68,1.61-2.68,3.29c0,6.27,14.38,6.88,14.38,18.58c0,6.65-4.44,11.32-11.31,11.32c-7.27,0-10.25-4.36-11.01-11.16
	l6.96-1.07c0.61,4.13,1.53,5.81,4.44,5.81c1.83,0,2.98-1.38,2.98-3.14c0-6.04-13.76-6.42-13.76-19.42c0-6.12,4.36-10.63,10.55-10.63
	c6.19,0,9.25,4.51,9.79,10.25L180.99,27.83z"/>
<g>
	<path fill="#0067B1" d="M181.98,9.99c-2.24,0-4.08-1.84-4.08-4.08c0-2.26,1.81-4.08,4.08-4.08s4.08,1.82,4.08,4.08
		C186.07,8.15,184.23,9.99,181.98,9.99z M181.98,2.36c-1.96,0-3.55,1.59-3.55,3.55c0,1.96,1.59,3.55,3.55,3.55
		c1.96,0,3.55-1.59,3.55-3.55C185.53,3.93,183.94,2.36,181.98,2.36z M182.07,3.79c1.02,0,1.55,0.41,1.55,1.2
		c0,0.51-0.22,0.86-0.71,1.08l0.84,1.94h-1l-0.63-1.73h-0.57v1.73h-0.92V3.79H182.07z M181.54,5.66h0.49c0.43,0,0.67-0.25,0.67-0.67
		c0-0.39-0.22-0.59-0.67-0.59h-0.49V5.66z"/>
</g>
</svg>
